# xmcd
#
# Track frame offsets:
#	150
#	11118
#	24435
#	34695
#	46496
#	59526
#	69869
#	80872
#	95816
#	105116
#	116565
#	127456
#	140679
#	151855
#	165791
#	177006
#
# Disc length: 2551 seconds
#
# Revision: 1
# Processed by: cddbd v1.5PL3 Copyright (c) Steve Scherf et al.
# Submitted via: audiograbber 1.81.02
#
DISCID=d109f510
DTITLE=Country Legends - Kenny and Dolly
DYEAR=2003
DGENRE=Country
TTITLE0=It Wasn't God Who Made Honkey Tong Angels
TTITLE1=Ruby Don't take Your Love to Town
TTITLE2=Release Me
TTITLE3=Me and Bobby McGee
TTITLE4=Little Blossom
TTITLE5=Goodtime Liberator
TTITLE6=The Giving And The Taking
TTITLE7=All God's Lonely Children
TTITLE8=Busy Signal
TTITLE9=If Wishes Were Horses
TTITLE10=I Took Him For Granted
TTITLE11=Shine On Ruby Mountain
TTITLE12=What Do You Think About Loving
TTITLE13=Loser
TTITLE14=Dumb Blonde
TTITLE15=Sunshine
EXTD=
EXTT0=
EXTT1=
EXTT2=
EXTT3=
EXTT4=
EXTT5=
EXTT6=
EXTT7=
EXTT8=
EXTT9=
EXTT10=
EXTT11=
EXTT12=
EXTT13=
EXTT14=
EXTT15=
PLAYORDER=
